<svg width="24" height="24" viewBox="0 0 24 24" fill="none" xmlns="http://www.w3.org/2000/svg">
<path fill-rule="evenodd" clip-rule="evenodd" d="M23.52 12.2727C23.52 11.4218 23.4436 10.6036 23.3018 9.81812H12V14.4599H18.4582C18.18 15.9599 17.3345 17.2308 16.0636 18.0818V21.0927H19.9418C22.2109 19.0036 23.52 15.9272 23.52 12.2727Z" fill="#4285F4"/>
<path fill-rule="evenodd" clip-rule="evenodd" d="M11.9995 24C15.2395 24 17.9559 22.9255 19.9413 21.0928L16.0632 18.0818C14.9886 18.8018 13.6141 19.2273 11.9995 19.2273C8.87406 19.2273 6.22861 17.1164 5.28497 14.28H1.27588V17.3891C3.25042 21.3109 7.30861 24 11.9995 24Z" fill="#34A853"/>
<path fill-rule="evenodd" clip-rule="evenodd" d="M5.28545 14.2802C5.04545 13.5602 4.90909 12.7911 4.90909 12.0002C4.90909 11.2093 5.04545 10.4402 5.28545 9.72017V6.61108H1.27636C0.463636 8.23108 0 10.0638 0 12.0002C0 13.9365 0.463636 15.7693 1.27636 17.3893L5.28545 14.2802Z" fill="#FBBC05"/>
<path fill-rule="evenodd" clip-rule="evenodd" d="M11.9995 4.77273C13.7613 4.77273 15.3432 5.37818 16.5868 6.56727L20.0286 3.12545C17.9504 1.18909 15.2341 0 11.9995 0C7.30861 0 3.25042 2.68909 1.27588 6.61091L5.28497 9.72C6.22861 6.88364 8.87406 4.77273 11.9995 4.77273Z" fill="#EA4335"/>
</svg>
